<svg version="1" xmlns="http://www.w3.org/2000/svg" width="1333.333" height="1333.333" viewBox="0 0 1000.000000 1000.000000"><path d="M571.3 393.8c-16.6 20.2-31.3 38-32.7 39.7-6.2 7.6-34.4 41.7-39.7 48.3-3.3 4-6.8 8.2-7.8 9.5-2.8 3.2-17.8 21.4-50.1 60.7-24.9 30.4-34.2 41.5-39.9 48.4-1.3 1.5-1.6 5.3-1.7 22.7 0 11.5.3 20.9.7 20.9.3 0 1.4-1 2.2-2.3.9-1.2 2.6-3.4 3.9-4.8 1.3-1.5 3.7-4.4 5.3-6.5 1.7-2.1 4.6-5.7 6.5-7.9 1.9-2.3 5.1-6.1 7-8.5 1.9-2.4 12.3-15 23-28.1 10.7-13 24.2-29.5 30-36.5 5.7-7.1 10.9-13.4 11.5-14 .5-.6 2.6-3 4.5-5.4 6-7.4 33.1-40.4 35.3-43 1.2-1.4 3.4-4.2 4.9-6.2 1.5-2 3.4-4.2 4.1-5 .7-.7 5.3-6.3 10.2-12.3 4.9-6.1 9.2-11.2 9.5-11.5.3-.3 4.6-5.5 9.5-11.5 4.9-6.1 9.2-11.2 9.5-11.5.3-.3 2.3-2.8 4.5-5.5 2.1-2.8 4.2-5.2 4.5-5.5.3-.3 4-4.8 8.2-10l7.7-9.6v-20.7c0-11.4-.1-20.7-.2-20.7s-13.8 16.6-30.4 36.8zM353.5 424.4c-8.8 5.1-31.5 18.2-50.5 29.1-19 10.9-44.8 25.7-57.5 33-12.6 7.3-24.7 14.2-26.8 15.4-2.1 1.2-4.9 2.9-6.3 3.7l-2.4 1.7.2 19.5.3 19.5 30 17.3c16.5 9.6 30.7 17.7 31.5 18.1.8.3 4.7 2.5 8.5 4.8 3.9 2.3 9 5.3 11.5 6.7 2.5 1.4 9.9 5.7 16.5 9.5 6.6 3.9 14 8.1 16.5 9.5 2.5 1.4 13.2 7.6 23.8 13.7 10.7 6.2 20 11.5 20.8 11.8 1.2.4 1.4-2.4 1.4-18v-18.6l-2.7-1.9c-1.6-1-7.5-4.6-13.3-7.9-5.8-3.3-18.1-10.4-27.5-15.8-9.3-5.4-25.5-14.8-36-20.8-10.4-6.1-21.7-12.6-25-14.5-3.3-1.9-8-4.6-10.5-6-2.5-1.4-6.4-3.7-8.8-5.2l-4.2-2.6 9.7-5.5c5.4-3.1 14.3-8.2 19.8-11.4 5.5-3.2 11.3-6.6 12.8-7.4 1.6-.9 3.6-2.1 4.6-2.6.9-.6 19.5-11.3 41.4-24l39.7-22.9v-18.8c0-10.3-.3-18.8-.7-18.7-.5 0-8 4.2-16.8 9.3zM628.8 416.7c-.2.5-.4 8.9-.3 18.8v18l38.5 22.3c21.2 12.2 43.5 25.1 49.5 28.5 26.5 15.3 38.1 22 38.8 22.6.4.4-1.4 2-4 3.5-2.7 1.4-5.5 3.1-6.3 3.6-3 2-48.3 28-48.7 28-.2 0-2.4 1.3-4.8 3-2.4 1.6-4.6 3-4.8 3-1.1 0-56.3 32.3-57.2 33.4-.6.8-1 8.7-.9 19.2 0 14.4.3 17.8 1.4 17.6 1.2-.3 12.4-6.7 80.5-46 13.8-7.9 26.8-15.5 29-16.7 2.2-1.3 13.4-7.7 24.9-14.4 11.5-6.7 21.2-12.1 21.7-12.1.4 0 1.4-.9 2.1-1.9 1-1.5 1.3-6.5 1.3-20.5-.1-10.2-.3-18.7-.6-19-.3-.4-12.5-7.4-29.4-17.1-2.2-1.2-8.5-4.9-14-8-5.5-3.2-11.8-6.8-14-8-2.2-1.3-20.2-11.6-40-23-44.5-25.7-42.1-24.3-47.4-27.3-2.5-1.4-6.7-3.8-9.3-5.3-5.4-3.2-5.5-3.2-6-2.2z"/></svg>